<svg viewBox="0 0 1080 1080" xmlns="http://www.w3.org/2000/svg">
  <path d="M 141.943,7.796 H 923.156 V 593.078 c 0,23.505 -1.962,47.03 -5.024,70.334 -2.888,21.98 -6.949,43.863 -12.56,65.31 -5.361,20.493 -12.223,40.621 -20.095,60.287 -5.847,14.605 -12.564,28.891 -20.095,42.703 -7.563,13.87 -16.04,27.263 -25.12,40.191 -8.568,12.2 -17.946,23.834 -27.631,35.167 -10.393,12.161 -20.995,24.215 -32.655,35.167 -8.674,8.147 -18.309,15.211 -27.631,22.608 -10.758,8.536 -21.246,17.476 -32.655,25.119 -15.272,10.231 -31.461,19.068 -47.727,27.631 -17.233,9.073 -34.803,17.559 -52.751,25.12 -15.624,6.582 -31.61,12.32 -47.727,17.584 -11.589,3.784 -22.986,9.555 -35.167,10.048 -8.532,0.345 -16.866,-2.832 -25.119,-5.024 -17.914,-4.757 -35.47,-10.881 -52.751,-17.584 -15.377,-5.964 -30.366,-12.916 -45.215,-20.095 -17.87,-8.64 -35.814,-17.28 -52.751,-27.631 -14.867,-9.086 -28.956,-19.438 -42.703,-30.143 -12.181,-9.486 -23.839,-19.653 -35.167,-30.143 -9.557,-8.85 -19.051,-17.831 -27.631,-27.631 -11.804,-13.482 -22.587,-27.88 -32.655,-42.703 -8.23,-12.116 -15.696,-24.765 -22.607,-37.679 -8.306,-15.521 -16.044,-31.393 -22.607,-47.727 -6.91,-17.198 -12.826,-34.837 -17.584,-52.751 -5.479,-20.632 -9.45,-41.679 -12.56,-62.798 -2.573,-17.475 -5.024,-35.088 -5.024,-52.751 z M 172.086,37.939 V 623.221 c 0,21.083 3.716,42.064 7.536,62.798 3.753,20.371 8.699,40.577 15.072,60.287 5.549,17.161 12.516,33.872 20.095,50.239 6.768,14.615 14.14,29.002 22.607,42.703 7.574,12.254 16.049,23.976 25.12,35.167 8.582,10.589 18.205,20.298 27.631,30.143 9.827,10.264 19.325,20.93 30.143,30.143 14.154,12.054 29.65,22.488 45.215,32.655 13.826,9.031 28.109,17.39 42.703,25.12 15.556,8.239 31.436,15.938 47.727,22.607 18.87,7.725 38.235,14.268 57.775,20.095 6.617,1.973 13.196,5.289 20.095,5.024 23.813,-0.915 45.655,-13.862 67.822,-22.607 20.563,-8.112 40.773,-17.244 60.287,-27.631 15.592,-8.3 30.658,-17.627 45.215,-27.631 11.318,-7.778 22.141,-16.285 32.655,-25.12 10.435,-8.769 20.298,-18.205 30.143,-27.631 6.842,-6.551 13.845,-12.977 20.095,-20.095 9.061,-10.32 17.387,-21.306 25.12,-32.655 8.247,-12.105 15.559,-24.839 22.607,-37.679 7.208,-13.13 14.364,-26.353 20.095,-40.191 7.093,-17.124 12.826,-34.837 17.584,-52.751 5.479,-20.632 9.496,-41.672 12.56,-62.798 2.655,-18.305 5.024,-36.766 5.024,-55.263 V 37.939 Z" fill="#ffffff" stroke-width="2.512"/>  
  <path d="m 312.755,324.3 c 12.585,-0.277 25.301,0.227 37.679,2.512 11.199,2.067 21.718,6.874 32.655,10.048 9.169,2.66 18.169,6.269 27.631,7.536 10.789,1.445 21.891,1.619 32.655,0 11.262,-1.693 21.758,-6.737 32.655,-10.048 8.364,-2.541 16.514,-5.997 25.12,-7.536 13.214,-2.363 26.793,-3.336 40.191,-2.512 13.605,0.837 27.044,3.939 40.191,7.536 9.453,2.586 18.194,7.405 27.631,10.048 4.111,1.151 8.311,2.091 12.56,2.512 10.832,1.073 21.891,1.619 32.655,0 11.262,-1.693 21.758,-6.737 32.655,-10.048 8.364,-2.541 16.514,-5.997 25.12,-7.536 13.214,-2.363 26.793,-3.336 40.191,-2.512 13.605,0.837 27.044,3.939 40.191,7.536 9.453,2.586 18.171,7.487 27.631,10.048 9.036,2.446 27.631,5.024 27.631,5.024 v 50.239 c 0,0 -11.786,0.863 -17.584,0 -19.911,-2.963 -37.973,-13.96 -57.775,-17.584 -12.382,-2.266 -25.103,-3.054 -37.679,-2.512 -11.003,0.474 -21.95,2.436 -32.655,5.024 -15.442,3.733 -29.533,12.527 -45.215,15.072 -12.398,2.012 -25.256,1.849 -37.679,0 -19.911,-2.963 -37.973,-13.96 -57.775,-17.584 -12.382,-2.266 -25.103,-3.054 -37.679,-2.512 -11.003,0.474 -21.95,2.436 -32.655,5.024 -15.442,3.733 -29.533,12.527 -45.215,15.072 -12.398,2.012 -25.256,1.849 -37.679,0 -19.911,-2.963 -37.973,-13.96 -57.775,-17.584 -12.382,-2.266 -25.103,-3.054 -37.679,-2.512 -11.003,0.474 -21.95,2.436 -32.655,5.024 -15.442,3.733 -29.533,12.527 -45.215,15.072 -6.612,1.073 -20.095,0 -20.095,0 v -50.239 c 0,0 25.3,-4.248 37.679,-7.536 12.796,-3.398 24.748,-9.72 37.679,-12.56 7.406,-1.627 15.027,-2.345 22.607,-2.512 z" fill="#ffffff" stroke-width="2.512"/>

  <path d="m 214.845,75.618 h 52.695 c 0,0 -1.207,99.013 2.512,148.204 0.622,8.223 4.35,16.645 10.048,22.607 5.174,5.415 12.807,8.327 20.095,10.048 10.594,2.501 22.061,2.501 32.655,0 7.289,-1.721 14.922,-4.633 20.095,-10.048 5.697,-5.962 9.414,-14.385 10.048,-22.607 3.719,-48.244 2.512,-148.204 2.512,-148.204 h 52.725 l 0.025,2.512 V 221.311 c 0,7.72 -2.441,15.333 -5.024,22.607 -2.506,7.058 -5.669,14.02 -10.048,20.095 -5.539,7.685 -12.309,14.7 -20.095,20.095 -8.316,5.763 -18.003,9.454 -27.631,12.56 -8.127,2.621 -16.622,4.182 -25.12,5.024 -9.166,0.908 -18.472,0.97 -27.631,0 -11.922,-1.263 -24.015,-3.136 -35.167,-7.536 -9.083,-3.583 -17.659,-8.771 -25.12,-15.072 -5.898,-4.981 -11.072,-10.981 -15.072,-17.584 -4.672,-7.714 -7.795,-16.387 -10.048,-25.12 -1.686,-6.537 -2.458,-13.345 -2.512,-20.095 -0.335,-42.174 0,-138.157 0,-138.157 z" fill="#ffffff" stroke-width="2.512"/>

  <path d="M 463.471,75.618 H 546.365 c 10.186,0 20.456,1.874 30.143,5.024 8.903,2.895 18.101,6.364 25.12,12.56 6.79,5.994 11.408,14.325 15.072,22.607 1.397,3.157 2.09,6.621 2.512,10.048 0.716,5.817 1.178,11.842 0,17.584 -1.282,6.247 -4.258,12.114 -7.536,17.584 -2.756,4.599 -6.472,8.565 -10.048,12.56 -2.369,2.647 -10.506,6.016 -7.536,7.536 7.032,3.599 14.195,7.308 20.095,12.56 4.005,3.565 7.589,7.796 10.048,12.56 2.796,5.417 4.453,11.515 5.024,17.584 0.866,9.208 0.019,18.736 -2.512,27.631 -1.537,5.403 -4.252,10.515 -7.536,15.072 -3.462,4.803 -7.981,8.806 -12.56,12.56 -4.669,3.828 -9.55,7.605 -15.072,10.048 -9.472,4.19 -19.786,7.536 -30.143,7.536 H 460.959 V 75.646 Z m 47.727,37.679 v 52.751 c 0,0 20.257,1.793 30.143,0 7.039,-1.276 14.37,-3.246 20.095,-7.536 3.35,-2.51 6.212,-6.076 7.536,-10.048 2.118,-6.355 2.563,-13.907 0,-20.095 -2.266,-5.47 -7.408,-9.643 -12.56,-12.56 -3.004,-1.701 -6.621,-2.09 -10.048,-2.512 -11.635,-1.432 -35.167,0 -35.167,0 z m 0,87.918 v 57.775 l 2.512,2.512 c 0,0 18.476,1.005 27.631,0 7.674,-0.842 15.84,-1.309 22.607,-5.024 5.19,-2.849 9.912,-7.264 12.56,-12.56 2.648,-5.296 3.217,-11.705 2.512,-17.584 -0.537,-4.477 -2.337,-8.938 -5.024,-12.56 -3.194,-4.306 -7.85,-7.486 -12.56,-10.048 -2.326,-1.265 -4.922,-2.088 -7.536,-2.512 -14.051,-2.28 -42.703,0 -42.703,0 z" fill="#ffffff" stroke-width="2.512"/>
  

  <path d="m 754.856,73.106 c 14.149,-1.553 28.575,-1.739 42.703,0 10.279,1.265 20.43,3.942 30.143,7.536 5.268,1.949 15.072,7.536 15.072,7.536 l 2.512,1.563 -7.536,43.652 c 0,0 -24.713,-11.217 -37.679,-15.072 -4.092,-1.217 -8.311,-2.091 -12.56,-2.512 -6.666,-0.66 -13.468,-0.973 -20.095,0 -8.649,1.269 -17.123,4.004 -25.12,7.536 -4.466,1.973 -9.076,4.115 -12.56,7.536 -5.636,5.535 -9.35,12.878 -12.56,20.095 -2.477,5.57 -4.178,11.547 -5.024,17.584 -1.742,12.438 -2.375,25.346 0,37.679 1.705,8.855 5.507,17.328 10.048,25.12 2.699,4.632 5.973,9.075 10.048,12.56 5.13,4.388 11.32,7.531 17.584,10.048 3.203,1.287 6.621,2.09 10.048,2.512 12.466,1.535 25.304,2.144 37.679,0 12.265,-2.124 23.6,-7.962 35.167,-12.56 3.399,-1.351 10.048,-4.41 10.048,-4.41 l 2.679,24.059 2.344,18.03 c 0,0 -16.286,9.461 -25.12,12.56 -11.313,3.968 -23.245,6.273 -35.167,7.536 -9.159,0.97 -18.472,0.97 -27.631,0 -11.922,-1.263 -23.927,-3.366 -35.167,-7.536 -9.837,-3.649 -19.231,-8.786 -27.631,-15.072 -8.533,-6.385 -16.376,-13.962 -22.607,-22.607 -5.474,-7.594 -9.312,-16.339 -12.56,-25.12 -2.396,-6.476 -4.18,-13.243 -5.024,-20.095 -1.944,-15.79 -2.548,-32.023 0,-47.727 1.697,-10.455 5.394,-20.629 10.048,-30.143 3.979,-8.136 9.126,-15.775 15.072,-22.607 6.619,-7.606 14.155,-14.598 22.607,-20.095 8.481,-5.516 18.036,-9.352 27.631,-12.56 7.321,-2.448 14.934,-4.182 22.607,-5.024 z" fill="#ffffff" stroke-width="2.512"/>
  

  <path d="m 312.755,412.051 c 12.585,-0.278 25.301,0.227 37.679,2.512 11.199,2.067 21.718,6.874 32.655,10.048 9.169,2.66 18.169,6.269 27.631,7.536 10.789,1.445 21.891,1.619 32.655,0 11.262,-1.693 21.758,-6.737 32.655,-10.048 8.364,-2.541 16.514,-5.997 25.12,-7.536 13.214,-2.363 26.793,-3.336 40.191,-2.512 13.605,0.837 27.044,3.939 40.191,7.536 9.453,2.586 18.194,7.405 27.631,10.048 4.111,1.151 8.311,2.091 12.56,2.512 10.832,1.073 21.891,1.619 32.655,0 11.262,-1.693 21.758,-6.737 32.655,-10.048 8.364,-2.541 16.514,-5.997 25.12,-7.536 13.214,-2.363 26.793,-3.336 40.191,-2.512 13.605,0.837 27.044,3.939 40.191,7.536 9.453,2.586 18.171,7.487 27.631,10.048 9.036,2.446 27.631,5.024 27.631,5.024 v 50.239 c 0,0 -11.786,0.863 -17.584,0 -19.911,-2.963 -37.973,-13.96 -57.775,-17.584 -12.382,-2.266 -25.103,-3.054 -37.679,-2.512 -11.003,0.474 -21.95,2.436 -32.655,5.024 -15.442,3.733 -29.533,12.527 -45.215,15.072 -12.398,2.012 -25.256,1.849 -37.679,0 -19.911,-2.963 -37.973,-13.96 -57.775,-17.584 -12.382,-2.266 -25.103,-3.054 -37.679,-2.512 -11.003,0.474 -21.95,2.436 -32.655,5.024 -15.442,3.733 -29.533,12.527 -45.215,15.072 -12.398,2.012 -25.256,1.849 -37.679,0 -19.911,-2.963 -37.973,-13.96 -57.775,-17.584 -12.382,-2.266 -25.103,-3.054 -37.679,-2.512 -11.003,0.474 -21.95,2.436 -32.655,5.024 -15.442,3.733 -29.533,12.527 -45.215,15.072 -6.612,1.073 -20.095,0 -20.095,0 v -50.239 c 0,0 25.3,-4.248 37.679,-7.536 12.796,-3.398 24.748,-9.72 37.679,-12.56 7.406,-1.627 15.027,-2.345 22.607,-2.512 z" fill="#ffffff" stroke-width="2.512"/>
  

  <path d="m 312.755,499.835 c 12.585,-0.278 25.301,0.227 37.679,2.512 11.199,2.067 21.718,6.874 32.655,10.048 9.169,2.66 18.169,6.269 27.631,7.536 10.789,1.445 21.891,1.619 32.655,0 11.262,-1.693 21.758,-6.737 32.655,-10.048 8.364,-2.541 16.514,-5.997 25.12,-7.536 13.214,-2.363 26.793,-3.336 40.191,-2.512 13.605,0.837 27.044,3.939 40.191,7.536 9.453,2.586 18.194,7.405 27.631,10.048 4.111,1.151 8.311,2.091 12.56,2.512 10.832,1.073 21.891,1.619 32.655,0 11.262,-1.693 21.758,-6.737 32.655,-10.048 8.364,-2.541 16.514,-5.997 25.12,-7.536 13.214,-2.363 26.793,-3.336 40.191,-2.512 13.605,0.837 27.044,3.939 40.191,7.536 9.453,2.586 18.171,7.487 27.631,10.048 9.036,2.446 27.631,5.024 27.631,5.024 v 50.239 c 0,0 -11.786,0.863 -17.584,0 -19.911,-2.963 -37.973,-13.96 -57.775,-17.584 -12.382,-2.266 -25.103,-3.054 -37.679,-2.512 -11.003,0.474 -21.95,2.436 -32.655,5.024 -15.442,3.733 -29.533,12.527 -45.215,15.072 -12.398,2.012 -25.256,1.849 -37.679,0 -19.911,-2.963 -37.973,-13.96 -57.775,-17.584 -12.382,-2.266 -25.103,-3.054 -37.679,-2.512 -11.003,0.474 -21.95,2.436 -32.655,5.024 -15.442,3.733 -29.533,12.527 -45.215,15.072 -12.398,2.012 -25.256,1.849 -37.679,0 -19.911,-2.963 -37.973,-13.96 -57.775,-17.584 -12.382,-2.266 -25.103,-3.054 -37.679,-2.512 -11.003,0.474 -21.95,2.436 -32.655,5.024 -15.442,3.733 -29.533,12.527 -45.215,15.072 -6.612,1.073 -20.095,0 -20.095,0 v -50.239 c 0,0 25.3,-4.248 37.679,-7.536 12.796,-3.398 24.748,-9.72 37.679,-12.56 7.406,-1.627 15.027,-2.345 22.607,-2.512 z" fill="#ffffff" stroke-width="2.512"/>


  <defs>
    <clipPath id="shield-clip">
      <path 
      d="M 0,-19.175781 A 19.17747,19.17747 0 0 0 -19.175781,0 v 242 c 0,8.80571 1.166096,16.7358 2.205078,23.79297 1.313121,8.91923 3.015878,18.01013 5.4375,27.1289 2.1046082,7.92504 4.7097129,15.68432 7.7402342,23.22657 2.95458215,7.35325 6.3514039,14.29459 9.8867188,20.90039 3.0045272,5.61401 6.310617,11.22943 10.042969,16.72461 4.341162,6.39153 9.092247,12.75439 14.435547,18.85742 4.209127,4.80759 8.493776,8.82362 12.398437,12.43945 4.789845,4.43554 9.837586,8.84523 15.248047,13.0586 5.755754,4.48225 11.932795,9.04689 18.78125,13.23242 7.833608,4.78762 15.557034,8.47169 22.652344,11.90234 6.096746,2.94783 12.525396,5.94347 19.414066,8.61524 7.29012,2.82746 14.93849,5.51034 23.01171,7.65429 1.93708,0.51442 7.04721,2.97705 15.69727,2.62696 10.40708,-0.42123 16.50508,-4.05885 19.17773,-4.93164 6.76902,-2.21051 13.63439,-4.66768 20.49219,-7.55665 7.74938,-3.26455 15.23496,-6.88634 22.48828,-10.70507 6.64624,-3.49912 13.69429,-7.3163 20.73828,-12.03516 5.77229,-3.86691 10.31713,-7.79286 14.2461,-10.91016 3.32858,-2.64094 7.62257,-5.73719 12.20898,-10.04492 5.53221,-5.19603 10.19541,-10.53789 14.45117,-15.51758 4.09525,-4.79185 8.2157,-9.88794 12.11329,-15.4375 3.9685,-5.65053 7.73448,-11.58816 11.14453,-17.84179 3.36474,-6.17054 6.35939,-12.5397 8.96679,-19.05274 3.38323,-8.45095 6.37799,-17.21365 8.74805,-26.27343 2.46852,-9.43611 4.22288,-18.93318 5.46094,-28.35547 1.29835,-9.88119 2.16406,-20.07394 2.16406,-30.49805 V 0 A 19.17747,19.17747 0 0 0 311,-19.175781 Z M 31.175781,31.175781 H 279.82422 V 239 c 0,5.72628 -0.77415,12.16944 -1.80078,19.24805 -1.13768,7.84435 -2.60875,15.49517 -4.55664,22.83007 -1.71773,6.46823 -3.75096,12.71109 -6.1836,18.58399 -1.7753,4.28595 -4.2594,8.95164 -7.09179,14.11133 -2.68748,4.8957 -5.30982,9.42368 -8.03907,13.42968 -2.7137,3.98321 -5.56462,7.73024 -8.5625,11.14454 -1.57774,1.7969 -3.93094,4.00633 -6.85156,6.80273 -3.91601,3.74945 -7.55143,7.20785 -11.07422,10.16797 -3.86471,3.24742 -7.69506,6.24649 -11.52539,8.87891 -5.29023,3.63575 -10.67881,6.96349 -16.14844,9.875 -7.03567,3.74511 -14.4212,7.08922 -22.02734,10.08984 -9.42853,3.71956 -15.67216,6.55512 -19.1543,7.33984 -0.60313,-0.14444 -1.36633,-0.29183 -3.32812,-0.87695 -7.3369,-2.18828 -14.44618,-4.60022 -21.21485,-7.37109 -5.73968,-2.34965 -11.50068,-5.13264 -17.29101,-8.19922 -5.32914,-2.82233 -10.51022,-5.85783 -15.488282,-9.10938 -6.045647,-3.94887 -11.518931,-7.68378 -16.052734,-11.54492 -2.962583,-2.52304 -6.350586,-6.24065 -10.583985,-10.66211 -3.90572,-4.07922 -7.341033,-7.5896 -9.953125,-10.8125 -3.166192,-3.90657 -6.057567,-7.91999 -8.583984,-12.00781 -2.83125,-4.58106 -5.432161,-9.62158 -7.912109,-14.97656 -2.808673,-6.06481 -5.269534,-12.01301 -7.154297,-17.8418 -2.250115,-6.95868 -4.028907,-14.1941 -5.388672,-21.57422 C 32.352834,258.35925 31.175781,251.14014 31.175781,245 Z"
      transform="matrix(1.40625,0,0,1.40625,361.80882,290.99233)"
      />
    </clipPath>
  </defs>

  <g clip-path="url(#shield-clip)">
    <g class="spinning-gear">
      <g transform="translate(110, 300) scale(4)">

        <path d="m 6.0721864,148.43125 c 0,54.76875 44.4499996,99.21875 99.2187536,99.21875 54.76874,0 99.21874,-44.45 99.23462,-99.21875 0.0159,-54.768751 -44.45,-99.21875 -99.2214,-99.23198 -54.771391,-0.01323 -99.2187444,44.45 -99.2319736,99.23198 z"
              style="display:inline;fill:#ffffff;stroke-width:0.264583" />
              
        <path d="m 20.62427,135.46667 -37.822187,2.159 v 21.61116 l 37.822187,2.23308 m 169.36508,-26.00324 37.8169,2.159 v 21.61116 l -37.8169,2.23308 m -71.64916,-97.723848 -2.159,-37.816895 H 94.570019 l -2.225146,37.816895 m 25.995317,169.370368 -2.159,37.8169 H 94.570019 l -2.225146,-37.8169 M 54.694665,79.414687 26.426582,54.202541 11.146895,69.482228 36.314061,97.792645 m 138.078099,101.319545 25.21215,28.26808 -15.27969,15.27969 -28.31041,-25.16453 M 174.39216,97.750311 199.60431,69.482228 184.32462,54.202541 156.01421,79.369708 M 54.694665,217.44781 26.426582,242.65996 11.146895,227.38027 36.314061,199.06985 M 32.141582,104.05533 -3.6247926,91.588166 -11.893022,111.55362 22.193249,128.0795 m 166.340891,40.76435 34.11009,16.46767 -8.26823,19.96546 -35.79548,-12.4169 M 149.74093,75.197228 162.21604,39.4335 142.25587,31.162625 125.72735,65.248895 M 84.965644,231.5845 68.495331,265.69458 48.532519,257.42635 60.946769,221.64146 M 84.965644,65.275354 68.495331,31.162625 48.532519,39.4335 60.946769,75.215749 m 88.794161,146.449521 12.47511,35.76637 -19.96281,8.26823 -16.52588,-34.08627 M 188.53414,128.02129 222.64423,111.55362 214.376,91.588166 178.58052,104.00242 M 32.141582,192.79923 -3.6247926,205.27698 -11.893022,185.31152 22.193249,168.783"
              style="display:inline;fill:#ffffff;stroke-width:0.264583" />
      </g>
    </g>
  </g>
</svg>