<svg
   viewBox="0 0 1080 1080"
   xmlns="http://www.w3.org/2000/svg"
   ><path
     d="M 0,-19.175781 A 19.17747,19.17747 0 0 0 -19.175781,0 v 242 c 0,8.80571 1.166096,16.7358 2.205078,23.79297 1.313121,8.91923 3.015878,18.01013 5.4375,27.1289 2.1046082,7.92504 4.7097129,15.68432 7.7402342,23.22657 2.95458215,7.35325 6.3514039,14.29459 9.8867188,20.90039 3.0045272,5.61401 6.310617,11.22943 10.042969,16.72461 4.341162,6.39153 9.092247,12.75439 14.435547,18.85742 4.209127,4.80759 8.493776,8.82362 12.398437,12.43945 4.789845,4.43554 9.837586,8.84523 15.248047,13.0586 5.755754,4.48225 11.932795,9.04689 18.78125,13.23242 7.833608,4.78762 15.557034,8.47169 22.652344,11.90234 6.096746,2.94783 12.525396,5.94347 19.414066,8.61524 7.29012,2.82746 14.93849,5.51034 23.01171,7.65429 1.93708,0.51442 7.04721,2.97705 15.69727,2.62696 10.40708,-0.42123 16.50508,-4.05885 19.17773,-4.93164 6.76902,-2.21051 13.63439,-4.66768 20.49219,-7.55665 7.74938,-3.26455 15.23496,-6.88634 22.48828,-10.70507 6.64624,-3.49912 13.69429,-7.3163 20.73828,-12.03516 5.77229,-3.86691 10.31713,-7.79286 14.2461,-10.91016 3.32858,-2.64094 7.62257,-5.73719 12.20898,-10.04492 5.53221,-5.19603 10.19541,-10.53789 14.45117,-15.51758 4.09525,-4.79185 8.2157,-9.88794 12.11329,-15.4375 3.9685,-5.65053 7.73448,-11.58816 11.14453,-17.84179 3.36474,-6.17054 6.35939,-12.5397 8.96679,-19.05274 3.38323,-8.45095 6.37799,-17.21365 8.74805,-26.27343 2.46852,-9.43611 4.22288,-18.93318 5.46094,-28.35547 1.29835,-9.88119 2.16406,-20.07394 2.16406,-30.49805 V 0 A 19.17747,19.17747 0 0 0 311,-19.175781 Z M 31.175781,31.175781 H 279.82422 V 239 c 0,5.72628 -0.77415,12.16944 -1.80078,19.24805 -1.13768,7.84435 -2.60875,15.49517 -4.55664,22.83007 -1.71773,6.46823 -3.75096,12.71109 -6.1836,18.58399 -1.7753,4.28595 -4.2594,8.95164 -7.09179,14.11133 -2.68748,4.8957 -5.30982,9.42368 -8.03907,13.42968 -2.7137,3.98321 -5.56462,7.73024 -8.5625,11.14454 -1.57774,1.7969 -3.93094,4.00633 -6.85156,6.80273 -3.91601,3.74945 -7.55143,7.20785 -11.07422,10.16797 -3.86471,3.24742 -7.69506,6.24649 -11.52539,8.87891 -5.29023,3.63575 -10.67881,6.96349 -16.14844,9.875 -7.03567,3.74511 -14.4212,7.08922 -22.02734,10.08984 -9.42853,3.71956 -15.67216,6.55512 -19.1543,7.33984 -0.60313,-0.14444 -1.36633,-0.29183 -3.32812,-0.87695 -7.3369,-2.18828 -14.44618,-4.60022 -21.21485,-7.37109 -5.73968,-2.34965 -11.50068,-5.13264 -17.29101,-8.19922 -5.32914,-2.82233 -10.51022,-5.85783 -15.488282,-9.10938 -6.045647,-3.94887 -11.518931,-7.68378 -16.052734,-11.54492 -2.962583,-2.52304 -6.350586,-6.24065 -10.583985,-10.66211 -3.90572,-4.07922 -7.341033,-7.5896 -9.953125,-10.8125 -3.166192,-3.90657 -6.057567,-7.91999 -8.583984,-12.00781 -2.83125,-4.58106 -5.432161,-9.62158 -7.912109,-14.97656 -2.808673,-6.06481 -5.269534,-12.01301 -7.154297,-17.8418 -2.250115,-6.95868 -4.028907,-14.1941 -5.388672,-21.57422 C 32.352834,258.35925 31.175781,251.14014 31.175781,245 Z"
     transform="matrix(1.40625,0,0,1.40625,361.80882,290.99233)"
     style="display:inline" /></svg>